<?xml version="1.0" encoding="utf-8"?>
<!-- Generator: Adobe Illustrator 17.0.0, SVG Export Plug-In . SVG Version: 6.00 Build 0)  -->
<!DOCTYPE svg PUBLIC "-//W3C//DTD SVG 1.1//EN" "http://www.w3.org/Graphics/SVG/1.1/DTD/svg11.dtd">
<svg version="1.1" id="Layer_1" xmlns="http://www.w3.org/2000/svg" xmlns:xlink="http://www.w3.org/1999/xlink" x="0px" y="0px"
	 width="25px" height="50px" viewBox="0 0 25 50" enable-background="new 0 0 25 50" xml:space="preserve">
<g>
	<g>
		<polygon fill="#FFFFFF" points="14.242,19.639 7.544,12.941 14.242,6.242 14.88,6.881 8.82,12.941 14.88,19.001 		"/>
	</g>
	<g>
		<path fill="#FFFFFF" d="M12.5,23.689c-5.927,0-10.749-4.822-10.749-10.748c0-5.927,4.822-10.749,10.749-10.749
			c5.927,0,10.748,4.822,10.748,10.749C23.249,18.868,18.427,23.689,12.5,23.689z M12.5,3.095c-5.429,0-9.846,4.417-9.846,9.846
			c0,5.429,4.417,9.846,9.846,9.846c5.429,0,9.845-4.417,9.845-9.846C22.346,7.512,17.929,3.095,12.5,3.095z"/>
	</g>
</g>
<g>
	<g>
		<polygon fill="#000100" points="14.242,43.758 7.544,37.059 14.242,30.361 14.88,30.999 8.82,37.059 14.88,43.12 		"/>
	</g>
	<g>
		<path fill="#000100" d="M12.5,47.808c-5.927,0-10.749-4.822-10.749-10.748c0-5.927,4.822-10.749,10.749-10.749
			c5.927,0,10.748,4.822,10.748,10.749C23.249,42.986,18.427,47.808,12.5,47.808z M12.5,27.214c-5.429,0-9.846,4.417-9.846,9.846
			c0,5.429,4.417,9.846,9.846,9.846c5.429,0,9.845-4.417,9.845-9.846C22.346,31.63,17.929,27.214,12.5,27.214z"/>
	</g>
</g>
</svg>
