<?xml version="1.0" encoding="utf-8"?>
<!-- Generator: Adobe Illustrator 17.0.1, SVG Export Plug-In . SVG Version: 6.00 Build 0)  -->
<!DOCTYPE svg PUBLIC "-//W3C//DTD SVG 1.1//EN" "http://www.w3.org/Graphics/SVG/1.1/DTD/svg11.dtd">
<svg version="1.1" id="Layer_1" xmlns="http://www.w3.org/2000/svg" xmlns:xlink="http://www.w3.org/1999/xlink" x="0px" y="0px"
	 width="25px" height="50px" viewBox="0 0 25 50" enable-background="new 0 0 25 50" xml:space="preserve">
<path fill="#FFFFFF" d="M18.237,9.47c0-3.572-2.896-6.47-6.47-6.47C8.194,3,5.298,5.898,5.298,9.47c0,0.95,0.209,1.85,0.578,2.664
	l-0.007,0.001l5.896,11.784l5.656-11.308c0.072-0.125,0.133-0.257,0.195-0.388l0.043-0.088l-0.001-0.001
	C18.028,11.321,18.237,10.421,18.237,9.47z M16.332,7.632l-5.354,5.353c-0.143,0.143-0.376,0.143-0.519,0L7.203,9.708
	c-0.143-0.143-0.143-0.377,0-0.519l0.778-0.777c0.144-0.143,0.376-0.143,0.519,0l2.221,2.236l4.313-4.314
	c0.143-0.143,0.375-0.143,0.519,0l0.778,0.779C16.476,7.256,16.476,7.489,16.332,7.632z"/>
<path fill="#020202" d="M18.237,33.703c0-3.572-2.896-6.47-6.47-6.47c-3.573,0-6.469,2.898-6.469,6.47
	c0,0.95,0.209,1.85,0.578,2.664l-0.007,0.001l5.896,11.784l5.656-11.308c0.072-0.125,0.133-0.257,0.195-0.388l0.043-0.088
	l-0.001-0.001C18.028,35.554,18.237,34.655,18.237,33.703z M16.332,31.866l-5.354,5.353c-0.143,0.143-0.376,0.143-0.519,0
	l-3.256-3.277c-0.143-0.143-0.143-0.377,0-0.519l0.778-0.777c0.144-0.143,0.376-0.143,0.519,0l2.221,2.236l4.313-4.314
	c0.143-0.143,0.375-0.143,0.519,0l0.778,0.779C16.476,31.489,16.476,31.722,16.332,31.866z"/>
</svg>
