<?xml version="1.0" encoding="utf-8"?>
<!-- Generator: Adobe Illustrator 17.0.0, SVG Export Plug-In . SVG Version: 6.00 Build 0)  -->
<!DOCTYPE svg PUBLIC "-//W3C//DTD SVG 1.1//EN" "http://www.w3.org/Graphics/SVG/1.1/DTD/svg11.dtd">
<svg version="1.1" id="Layer_1" xmlns="http://www.w3.org/2000/svg" xmlns:xlink="http://www.w3.org/1999/xlink" x="0px" y="0px"
	 width="25px" height="50px" viewBox="0 0 25 50" enable-background="new 0 0 25 50" xml:space="preserve">
<path fill="none" stroke="#FFFFFF" stroke-width="0.75" stroke-miterlimit="10" d="M18.237,9.47c0-3.572-2.896-6.47-6.47-6.47
	C8.194,3,5.298,5.898,5.298,9.47c0,0.95,0.209,1.85,0.578,2.664l-0.007,0.001l5.896,11.784l5.656-11.308
	c0.072-0.125,0.133-0.257,0.195-0.388l0.043-0.088l-0.001-0.001C18.028,11.321,18.237,10.421,18.237,9.47z"/>
<path fill="none" stroke="#000000" stroke-width="0.75" stroke-miterlimit="10" d="M18.237,33.703c0-3.572-2.896-6.47-6.47-6.47
	c-3.573,0-6.469,2.898-6.469,6.47c0,0.95,0.209,1.85,0.578,2.664l-0.007,0.001l5.896,11.784l5.656-11.308
	c0.072-0.125,0.133-0.257,0.195-0.388l0.043-0.088l-0.001-0.001C18.028,35.554,18.237,34.655,18.237,33.703z"/>
<path fill="#000100" d="M11.615,29.289c0,1.026,1.744,2.164,1.744,3.334c0,0,0,0.113-0.047,0.235
	c1.631,0.338,2.784,1.138,2.784,2.074c0,1.259-2.059,2.291-4.61,2.301c-0.016,0.008-0.033,0-0.048,0
	c-2.528,0-4.579-1.001-4.579-2.253c0-0.937,1.251-1.695,2.762-2.099c0,0.517,1.719,2.156,1.759,2.818c0,0,0.008,0.055,0.008,0.121
	c0,0.033,0,0.064-0.008,0.096c0.372-0.192,0.372-0.799,0.372-0.799c0-1.437-1.671-2.074-1.671-3.488c0-0.55,0.257-0.953,0.493-1.065
	v0.396c0,1.023,1.809,2.171,1.809,3.108v0.307c0.419-0.163,0.419-0.929,0.419-0.929c0-1.291-1.679-2.009-1.679-3.488
	c0-0.549,0.257-0.952,0.492-1.065V29.289"/>
<path fill="#FFFFFF" d="M11.637,4.883c0,1.026,1.744,2.164,1.744,3.334c0,0,0,0.113-0.047,0.235
	c1.631,0.338,2.784,1.138,2.784,2.074c0,1.259-2.059,2.291-4.61,2.301c-0.016,0.008-0.033,0-0.048,0
	c-2.528,0-4.579-1.001-4.579-2.253c0-0.937,1.251-1.695,2.762-2.099c0,0.517,1.719,2.156,1.759,2.818c0,0,0.008,0.055,0.008,0.121
	c0,0.033,0,0.064-0.008,0.096c0.372-0.192,0.372-0.799,0.372-0.799c0-1.437-1.671-2.074-1.671-3.488c0-0.55,0.257-0.953,0.493-1.065
	v0.396c0,1.023,1.809,2.171,1.809,3.108V9.97c0.419-0.163,0.419-0.929,0.419-0.929c0-1.291-1.679-2.009-1.679-3.488
	c0-0.549,0.257-0.952,0.492-1.065V4.883"/>
</svg>
